<mxfile host="app.diagrams.net" agent="Mozilla/5.0 (Windows NT 10.0; Win64; x64) AppleWebKit/537.36 (KHTML, like Gecko) Chrome/138.0.0.0 Safari/537.36" version="28.0.5">
  <diagram name="Page-1" id="Af2CoAbSZcckCuTcOnmQ">
    <mxGraphModel dx="1426" dy="743" grid="1" gridSize="10" guides="1" tooltips="1" connect="1" arrows="1" fold="1" page="1" pageScale="1" pageWidth="827" pageHeight="1169" math="0" shadow="0">
      <root>
        <mxCell id="0" />
        <mxCell id="1" parent="0" />
        <mxCell id="2" value="" style="strokeWidth=1;shadow=0;dashed=0;align=center;html=1;shape=mxgraph.mockup.containers.browserWindow;rSize=0;strokeColor=#919191;strokeColor2=#008cff;strokeColor3=#c4c4c4;mainText=,;recursiveResize=0;container=0;" parent="1" vertex="1">
          <mxGeometry x="430" y="230" width="1050" height="750" as="geometry" />
        </mxCell>
        <mxCell id="3" value="&lt;font style=&quot;font-size: 13px;&quot;&gt;My first teal app&lt;/font&gt;" style="strokeWidth=1;shadow=0;dashed=0;align=center;html=1;shape=mxgraph.mockup.containers.anchor;fontSize=17;fontColor=#666666;align=left;whiteSpace=wrap;" parent="1" vertex="1">
          <mxGeometry x="486" y="242" width="120" height="26" as="geometry" />
        </mxCell>
        <mxCell id="4" value="127.0.0.1:3838" style="strokeWidth=1;shadow=0;dashed=0;align=center;html=1;shape=mxgraph.mockup.containers.anchor;rSize=0;fontSize=17;fontColor=#666666;align=left;" parent="1" vertex="1">
          <mxGeometry x="560" y="290" width="250" height="26" as="geometry" />
        </mxCell>
        <mxCell id="17" value="" style="whiteSpace=wrap;html=1;aspect=fixed;strokeColor=none;" parent="1" vertex="1">
          <mxGeometry x="465" y="246" width="20" height="20" as="geometry" />
        </mxCell>
        <mxCell id="33" value="&lt;span style=&quot;font-size: 20px;&quot;&gt;&lt;font color=&quot;#303030&quot;&gt;My first teal application&lt;/font&gt;&lt;/span&gt;" style="text;html=1;strokeColor=none;fillColor=none;align=left;verticalAlign=middle;whiteSpace=wrap;rounded=0;fontSize=13;" parent="1" vertex="1">
          <mxGeometry x="433" y="349" width="230" height="30" as="geometry" />
        </mxCell>
        <mxCell id="118" value="" style="shape=image;verticalLabelPosition=bottom;labelBackgroundColor=default;verticalAlign=top;aspect=fixed;imageAspect=0;image=data:image/png,iVBORw0KGgoAAAANSUhEUgAAADIAAAA6CAYAAADybArcAAAAIGNIUk0AAHomAACAhAAA+gAAAIDoAAB1MAAA6mAAADqYAAAXcJy6UTwAAAAGYktHRAD/AP8A/6C9p5MAAAAJcEhZcwAALiMAAC4jAXilP3YAAAAHdElNRQfpAgcMJhG6/NGBAAAUB0lEQVRo3r2aeXBcxZ3HP/2OmZHmkEYjje7Ttowsyzg2ZwgbIGHDEZKiErIJa3MfSTaQkGSrUrsbsrW7fyRbizEQ7yYBDCaQm7AkuyFswmnA4IBtsCz5kq3bOqxbc7/XvX+8Gc0bSTYkodJVqnnqmdfd39/x/f361y14H9vmLTbxJJSXKn78IubfXsxHV9bwT1KSOjLMv/3gMV66ZRP25Lwg6IMdd+nv29zi/QFgMRODSAi23wnX3Sva1jRwW0cTn2upoVJKODrM0P5e9XhXHw/d+3mOfuNhGJ3UqQhLHnsfAP1ZQDbdY6EJQcZWrGsRvHFQVbY3imvXNnJbWwNnlIdAqvxE4zPQ1c/+zj71X529/OwDK5k4MiQwdQDFD79q/GWB3LbNJp5UZGyojcDL+yk6fw1XtDeKOzqauKAmgmFooMgCUaAJEBpkLBg8SWZ/Ly929an7X3ib3310A6mRSTANaG+Af7jmjwf0RwG5bZskmZbEklDih+2PKu3Wm8Q5bfV8aU2j+ERzFcEiDyiVfyenEc01kxAQT0HPCaa7+vlld7/atv1OufeGrZqamlOU+AVFXvj+3713QO8ZyKZ7Mjz+tUmu2xLhy1cL/v3nqrm9UdzS0cT1q2up9Rdlpe4oACHyQBSgZ7/IfaeU891cHA4O0ru/V23v7OXRz10kBv77NUV1OYxPwaNfeW9g3hXIDfdZAKQysKpG8IdDKryuRVzT3sgX2xs5M1riLMySeSA5qQPYWdPSNed/pZzvZBaIqTm/GZ1Cdfbx5oE+tW1fD0+d1cps/xgUecGyBTu+cnpCOC2QzVtsEmmoLFX8dg+eyzZwSVsDd65rFpfUV+D16I6ElXIW4waSA2PL5U0rB8TQ8gtJW9A3RuLt4+rZ7gEe+MXLYuenL1SZsWko9sLjXzu1dpYFsnmLTSwFpX7F9jt1brjPPnNNPV9c2yyuaa4kHCpyADh2chogOY3kTEvk/SdHBLrIm1pOizNxOH6C8f296idd/Xzvsbv0rhvvs5maVwSLBY8vw24FQG7fZjGbcAb9yJnwzFvUtjdwfUeTuPmMelrCgeUXnDMh4ZJ8FmOhj7hazkdyJrd4LF3AxBx09XOos1f9oLOPJy7qEKN/OOK8U1ch+Pbm/MsC4OYHLNIZgWVDfYViVzfBs1v5RHuj+FJbI+dUhdF0l+SXnTznI7kFZ5G46deN/rRApNMvBNg2DE9gd/Xzalc/D+zq5jcXrCE+NAm6UISDGttu1xDX3euYUVlA8dOXhXHtReqCtnruaG8Sl7dUUew1Qcql0nKLQpB3ds1lPjlfUKoQpMpqSUow9EK6JutXuuv3AkhmoOcEc529/Lp7QH33wZ+I3Td9RtkzMUGgCMT1Wy0e/bLGpi1y9ZoGbu9oEteuqqXS73OZSdZ+FYWTLNi1AutUzu5irYIFLxJKbjw3EJYZaz4Oh4cY2t/LY1196qG7N4lj3/6pQnz621Z1ay3XrG0Sn19TT1sklB/M0Aqlu2BabhPKtlPSb1ab7wVIziKXAHFpPdc/NgNdfbzT2ae2HRnmKbHlaWvXuWeIDXURPIaeZ5McNZ5q8hwwTQgEIk8CApQApRybOh0QSX5hbtayTqUR6XzmBJaxoX+c1OvdapfRXCXOa6rM2+0f0zQhmEwnODg3Ts/sSdKJOK3TCZqKSilraqE4HMkCXjryxBzMxRU1EYHXdJnWIi0s13ImaOjQUoV3eEJcaCjAsgtB5Bhl6QhZmtUESdvi2Ykefjz0Nt1TJ5hPxJHpDKsGJ7j6zaNUl1fTesnlNF14Kb5gCOUa0JYwdFKhCRibVtSWi4L5bLk8gAJmVAXLkoYQS9WuBIhl1IsAoQQJleG7I/t4dGgf87MziEQKkcqgbJtxr868lWai5xBvjQxx8thhNn72JoJRR+1CwMkZiCfBY8LEnKAq7GS+C8FSW2bu7PyatlRTAjCWdC5kffkX3MqxleTRqUM8NLSP1IlRPJOzeOIpdOVIuGNwgtKMjVlUhKbrnHh7N/u9Hs669lZ8oRCjU4qRSehocUxqeAIOD0FrHZhZKl5MGAtCXsRwC5/Akljv9hW1CKCG4PXUBI/07cXcf4RVh4aoGZkikkzj1wWmLihJpDF1Hd3jwfB4MUyTsYP76du9k9KNVzA0Aa21UOxzTKWhAvrG4PCg028aeUGesqn8WnNtCRC3/RVQrIKkkPx8pBPPS2/wwdcPUzE5T8gEr6E5gTD704wt0QwTb7Efw+tF13X69r7FfPRcVreWE/CqhRxMAI3RLJisZjRt6ULdZrSECARo7kWfUghZmu1JzND/0ktc9PIBaqbmKPFqeE0dNIESAoXIZsOKZDxGKh5DNww8RcXoVoJqbYhAkSjY/pJ13sYo+H1waBBm5p3URLhM6V3Xl4sbtnQYKfe50JfrR3Dw2EGaX3qTcDyFz9TwZPfaqCzF5lbmdJCYm0OaPuIV9ZwMVjA6M0sqY6NwwNiuOaSC+grIWIreUcXgSbUQzwrW4f4/967btBanHMIlMQBLSeJ791IxNoluaHiWobS8VTpP0uNjz2ScnoOvkU6lKHntTS462s+lV1xJeSTsotI830aCMDkHI1NQXZb1GQrX5F5X7tHIRUp3bzY9cmWsgnQ6id5zFI+0ELrheie/h3WDEMCJlORA7yC2LR3aHR3hqSd28M6ePbRvOJtQJEpTYwNnrmlBzw5YW64RLFZMz8PRYYcAPIYTEqQrsi9YVVb4hrvDzQgLoHI0l0qhx5OYviJ0w0DThIsmnSfLslFKoWmO82dsA8OjYQJS2khpIaXF4QN76T1ygEhFJTfc/gWEWImUyplaKAJFECp2CODgELTWOFF8iWsUsJZaqio3l+d/6aXogk9Ruf4yykoDmJrEFDamBmWRUkzTZOfOXUxOTlNTW0MgUEyDbnKeZqLrGpoGhqGh6yZCN/F6TGQmQXP7ek7GnbzJkgpLCTK2Y/sZYCINM8MQ9CpWlwu8xvJsZois+QiVp29bOftnn5mnBaEbWGUN2EEbI1qKqSu8wsJnKKJ1lfj9PspGZ7HHJ6hvW004XIKu6xiGkf3Us4B0lNCxJTz9xPeYiSVY96ErSWYcMBmpSNsOmLStsDXBdEqRzEiiXo1Sv6DYW2g5AjBiSce53NoYm1ZkLGc7WerP5V0K27KYmUsRCKTxGoK0sEhrNrF4iuIiL9FoOUpK6uqqKCsLL5icM65C2hJbSlIZia00vP4gD977L9xgWTSfeTHxlE3akqQtScpSpDOSlCXJ2BI7rePPVFDs1akoEeg6C5KfTSiMmbhidDo/oZQwn1AYumAyWyxTCnRNw2MIZmMpgnGLYq9ORkgywmZyNkmoJESkLEx/bz/pZBppS3RdQ0mFVArbsrEsi0zGIpGySGYUVbUtxONxHtr6r3z2ljhlzRuZj6VJp21SGYtU2vlLpi3qomUUe6LYEuaTTi6msupIpcGoLhO01RX6eCypMT6rmJwVzMSgLABoGpGgh3gyzfRcEkVRFohkfDpGWcTCXxLmaGaGN996jtLyMJppIKWNshW2bWfB2FgZi3RG4rEylNVUc7yrm59t38oFn/gc/YEQE/Pz2LYkY1nUFpWwMVLHmtpKWmp0PAb4PIXENDYlHGfP1aZysaTYCw0VgjI/HB1x+spDgpqIHx3J5NQchunB0iQZTSGnY4xPx6kuDxGsqeT+F3+G7dMRRZ7CrV+eo1FKEfb4WF8TxTxylImT4+z81Y8ou/RCOstMplNJhKHYsKKGS1pXEY5E8PsEAkV2z5Y3W5w8MEuhebbKRfuQH1ZWOzR4chYqywLUhD1MTs0yM58glpbEU5K5WIaB4ZPMJmwuWnkW59S0QtpG2A4VC01kUwyHsoVUaFIRS6eRFWX4vD503WBuapqZ51/jrCmLUlunUvn46xXraGxeQagkjFJqSSKbC+ALxRh3quym3pIFMIq4VcS6FRE0mWZ8bIJY0iaesomnFaNjUwwMT1DkKeGWc6+kvigMsTQiZaFlJCJtI5IWWsJCi2cQsQyZmQTzXg/+UAhNCDRdd8A89xpnTVtcXbeG9upGhKYtFD8K4rDr2Vi8vy1I47MqDBbDyho4NCiwtSoqSsboGR7HME1CwWIsIclkLI4d78fjMTmjqpVvXrKZ7r5uPF4Tf8iPoekoKVG2w15KSqSU+KVkZ1cfM9PTTiDVBOlUEvudbs45+8ME/H6U2yRdvuGO4UYuKVt2q6vlf+n3QbBIkTYDdKxqIp2a5vjQCVRNFYEiD5ZQWJkE3d1HUGolHXVr6IjWk5qbxOc1KS0twev1OOahFFJKlFJYlsX47jc41NWZjTMal11xFes2nEtdY7OT7mdTMVtmd6/LVC0NTQNdEwUFApUNkO68UAiIlgqGJxRrV5UT9TfwyxcOM9w/QLS6Cn8OzOQcb+87QGxlE82N1fgjVaRj04yOn8Q0DbxeD0IIpC2xbBspJXWNLQSDQS648MN0HdjPyMgwN5x9HqHScqRySVlbvlyrAfpnb/nWP9dElkHJomQS8HkhHBSEgyaloWLCxYqx8SkGhsZRQkc3DKSUpFNJTo6PMzM9g+HxUBouJRTwg7JJxOPE40mSqRS2ZWWLEhIhM1x06ZUEAgF2vvg80coorWesXcJOy+1LBk4ilyaNi1hhcX+uvFPsD7K2bRU+j8HOt46x99Ag89NFhMtK8XsNrEyG472DjAwNUR4OUlNVRmV5iECxF49HJ5POEIvFmZudR9kaH/nYVTSuXENtXSMDfcdIxuPYtgXivR2UGm76zQFatoCxBJTCHwiyunUlJUE/LbWl7OkaoH9kgBlhEPAXUeQzSeuC2Pw8QwODGJrCEDYCiUAQCvqpq6ugrraSqupaSsNlZDIlbLrpDgLBEAptoZa8uAS0eE2n1ci7N4WvqJj6xkYCoRJWNFYydGKc3oFxToxOMx+bIy4VuiAbkXV8fg+RcAmVlREqKiuorIwSDpdhmh5AYRgm1Q0teAy9YKu7nGUUaOR0rFUghOyDLXG8a+F7hRA6oXAEfzBERbSKlStmic3HiMcTJJIpbFti6AKPx0NRsQ+/348/EKLYH8Tn82Truio/n6aj0JBZhsu1AtZadOBquCvlC7yci5auykjuXSWWZw4F6B4TnydMaWkJtp1NErMOrWtOwDMMA90wEMJZ6NJCnMCyLPr7j1FeUYk/EFhQh8oW6JYcqSg0o+cEvy8LckFjlCKPmQ+CyzKEyvctPi4TuT21UAgh0DQT0zTxLnM8DYWSdh8OCU2QSafY+eLvqYhWcsVVV2fPZ9SCAHNrSFnQO8J87ygv6r61d//v1BxH4ylRX+Sh2u9DaCJvWosnW0zL7mPoXO7jTkDVov4Fm180lhACzdCYmZqi8519rP/ARvbu2Y2UiopoFF03Fk64pILhSeTuQ7z+arf65p4jfEc/96q7E1ecLfb94hX12+kYMxlbNPt9lPo8yy84d/qUm9xtp2IRA7pNueBYzvWdrgl0XSOZTHLsyGF6jx3lhef+j9ETQwSDIWLzc7SuXoNhaCgFU/Pwdg89rxxQ//Fql/jH885g1+g0KX39ZXfzaheUBJjZeov1cvBM7ZXpGKYQoiVUjM80XHt6kZdiAV0Ll0YWaVG5TMutkdzDkYOdnBga5Mihbp75n6ccoUibimglf3XxpWw8+zwM0yCWgO4BJl/rUjt2dfP399+WePKcq4y5PT06oeJsIeTr2y1Gppx9enUZPLcX38XrubS9gTvXNokP10QwTd1JedynSW6Jn+q0Vy7rIznTEjz5o0fo7trPx674JM//7hna2tdx1vkXUhmtxOfzks5IBsZJdfby3IE+df+v3+CFT55PenQKvGb+7L1g+M1bLFCQtqGjCXZ1U762mb9pbxCfb29kbXkIJCJfZ3W1HJDFkl/2xCorAVtBbHaK3/zqSXxFxazfcDaR8iiBkjAoxdi0Ugf62NfVr/5z/3Hx5MZVaurIkBOThKDgNtGy5dRNWyzGZ6AqDA9+WXDjPWpVWwO3dTSJTStqqCr1L3ph0WGo2xdyp7q5CwPuFNxWYOoas7MzJBNxopVVAEzMKY4OMdjZq3Z09fPwzZdz/PHn4O2jio5mwQ+/9i4XBha3zfdYzCegvBQefBL9tk9xflsDd6xrFlc2VeL3mae/wrFgWqLwrDAHJH+FQ6BpgnhScmyE2XeOq6e7+/nuw9+Sb978L5ocnxaUBjjtBbXTAgG48T4bqRSpDNSUwZuHCWxs5eNrG7mjvVGcW1OGrutOTeq0VzgWXarJgTc0p/I+NIHV2cfOA33qgde6+O35bSRGp3KFBsWOu8zTrvNdgeTaTffboCSpjOBDawXPvqWqO5rYvLZJ3NpWz8oS//Js5vaRhX6cKG1LmJ6Hrj66O/vU9/cf58cXrmVsb49TvDZ02H7n+3TNyd2+8ZjF8ASMT0I0Aju+MsH1WyMda+r5wppG8ZlVtUQCvsJ0J8dauTpUzofmEnBokLGuPvWjrn6+/8Ov6gev32rz2F06N2y13/M9rT8JiLttuscimYHKMDz1CuYnP8jFbQ3csbZRXNoQxesx8uf1OSBCOPe+ekdJHOjjme4Bdf9Dz6hXb71cWOMzTon2ia//afca/2Qg4JCBwok/LdWw54gqXb9CfKq9UXyxvZEPVJYi3EQ9Mons7GP3gT61bU8PT29YwdzAuEOnmgaP3fUXvpy5uF13r8WhYY3VNZJrL4JHfkfTmnpu7GgW16+qpVEqODxIz/5etf1APzs+fq4Yen6v4vLz4jy72/+ut+P+YkBy7fqtFjMxQSSkePgOqd3ygPbBlTV8QypSR4b5ziN3xv5w431+NTIB0TDs+DM0sLj9PzAhx7sO6DvMAAAAJXRFWHRkYXRlOmNyZWF0ZQAyMDI1LTAyLTA3VDEyOjM4OjA4KzAwOjAwitFTGQAAACV0RVh0ZGF0ZTptb2RpZnkAMjAyNS0wMi0wN1QxMjozODowOCswMDowMPuM66UAAAAodEVYdGRhdGU6dGltZXN0YW1wADIwMjUtMDItMDdUMTI6Mzg6MTcrMDA6MDCWe7oNAAAAAElFTkSuQmCC;" parent="1" vertex="1">
          <mxGeometry x="467.76" y="245" width="17.24" height="20" as="geometry" />
        </mxCell>
        <mxCell id="fw1xbtyjA_LvM3XlfYl4-119" value="&lt;span style=&quot;font-size: 20px;&quot;&gt;&lt;font&gt;Home / Module&lt;/font&gt;&lt;/span&gt;" style="text;html=1;strokeColor=none;fillColor=none;align=left;verticalAlign=middle;whiteSpace=wrap;rounded=0;fontSize=13;fontColor=light-dark(#000000,#EDEDED);" parent="1" vertex="1">
          <mxGeometry x="443" y="401.43" width="230" height="30" as="geometry" />
        </mxCell>
        <mxCell id="56yJqlSQkmCnyHyB5Rn--118" value="&lt;span style=&quot;font-size: 20px;&quot;&gt;&lt;font&gt;Module&lt;/font&gt;&lt;/span&gt;" style="text;html=1;strokeColor=none;fillColor=none;align=left;verticalAlign=middle;whiteSpace=wrap;rounded=0;fontSize=13;fontColor=light-dark(#347AB7,#EDEDED);fontStyle=4" parent="1" vertex="1">
          <mxGeometry x="468" y="379" width="90" height="30" as="geometry" />
        </mxCell>
        <mxCell id="56yJqlSQkmCnyHyB5Rn--119" value="" style="shape=image;html=1;verticalAlign=top;verticalLabelPosition=bottom;labelBackgroundColor=#ffffff;imageAspect=0;aspect=fixed;image=https://icons.diagrams.net/icon-cache1/Ionicons-2627/icon-camera-1132.svg" parent="1" vertex="1">
          <mxGeometry x="1415.43" y="402.55" width="22.5" height="22.5" as="geometry" />
        </mxCell>
        <mxCell id="56yJqlSQkmCnyHyB5Rn--121" value="" style="shape=image;html=1;verticalAlign=top;verticalLabelPosition=bottom;labelBackgroundColor=#ffffff;imageAspect=0;aspect=fixed;image=https://icons.diagrams.net/icon-cache1/Evericons_24px_Vol_1-2247/menu-dots-1391.svg" parent="1" vertex="1">
          <mxGeometry x="1444.43" y="401.8" width="24" height="24" as="geometry" />
        </mxCell>
        <mxCell id="50" value="&lt;pre style=&quot;box-sizing: border-box; overflow: auto; font-family: Menlo, Monaco, Consolas, &amp;quot;Courier New&amp;quot;, monospace; font-size: 10px; display: block; padding: 9.5px; margin: 0px 0px 10px; line-height: 1.42857; color: rgb(51, 51, 51); word-break: break-all; overflow-wrap: normal; background-color: rgb(245, 245, 245); border: 1px solid rgb(204, 204, 204); border-radius: 4px; font-style: normal; font-variant-ligatures: normal; font-variant-caps: normal; font-weight: 400; letter-spacing: normal; orphans: 2; text-align: start; text-indent: 0px; text-transform: none; widows: 2; word-spacing: 0px; -webkit-text-stroke-width: 0px; text-decoration-thickness: initial; text-decoration-style: initial; text-decoration-color: initial;&quot; aria-live=&quot;polite&quot; id=&quot;teal-main_ui-root-Module_1-module-text&quot; class=&quot;shiny-text-output noplaceholder shiny-bound-output&quot;&gt;   Sepal.Length Sepal.Width Petal.Length Petal.Width Species&lt;br&gt;1           5.1         3.5          1.4         0.2  setosa&lt;br&gt;2           4.9         3.0          1.4         0.2  setosa&lt;br&gt;3           4.7         3.2          1.3         0.2  setosa&lt;br&gt;4           4.6         3.1          1.5         0.2  setosa&lt;br&gt;5           5.0         3.6          1.4         0.2  setosa&lt;br&gt;6           5.4         3.9          1.7         0.4  setosa&lt;br&gt;7           4.6         3.4          1.4         0.3  setosa&lt;br&gt;8           5.0         3.4          1.5         0.2  setosa&lt;br&gt;9           4.4         2.9          1.4         0.2  setosa&lt;br&gt;10          4.9         3.1          1.5         0.1  setosa&lt;br&gt;11          5.4         3.7          1.5         0.2  setosa&lt;br&gt;12          4.8         3.4          1.6         0.2  setosa&lt;br&gt;13          4.8         3.0          1.4         0.1  setosa&lt;br&gt;14          4.3         3.0          1.1         0.1  setosa&lt;br&gt;15          5.8         4.0          1.2         0.2  setosa&lt;br&gt;16          5.7         4.4          1.5         0.4  setosa&lt;br&gt;17          5.4         3.9          1.3         0.4  setosa&lt;br&gt;&lt;/pre&gt;" style="text;whiteSpace=wrap;html=1;fontSize=7;" parent="1" vertex="1">
          <mxGeometry x="919.9950000000001" y="431.4314765100671" width="470.40000000000003" height="365.86630872483215" as="geometry" />
        </mxCell>
        <mxCell id="56yJqlSQkmCnyHyB5Rn--122" value="" style="group" parent="1" vertex="1" connectable="0">
          <mxGeometry x="697.76" y="490" width="187.25" height="80" as="geometry" />
        </mxCell>
        <mxCell id="39" value="&lt;font style=&quot;font-size: 12px;&quot;&gt;&lt;b&gt;Choose a dataset&amp;nbsp;&lt;/b&gt;&lt;/font&gt;" style="text;html=1;strokeColor=none;fillColor=none;align=left;verticalAlign=middle;whiteSpace=wrap;rounded=0;fontSize=13;" parent="56yJqlSQkmCnyHyB5Rn--122" vertex="1">
          <mxGeometry width="177.25" height="30" as="geometry" />
        </mxCell>
        <mxCell id="41" value="IRIS&lt;span style=&quot;white-space: pre;&quot;&gt;&#x9;&lt;/span&gt;" style="rounded=1;whiteSpace=wrap;html=1;fontSize=12;strokeColor=#666666;align=left;" parent="56yJqlSQkmCnyHyB5Rn--122" vertex="1">
          <mxGeometry x="9" y="30" width="178.25" height="20" as="geometry" />
        </mxCell>
        <mxCell id="43" value="" style="triangle;whiteSpace=wrap;html=1;rounded=1;strokeColor=none;fontSize=12;fillColor=#080808;rotation=90;" parent="56yJqlSQkmCnyHyB5Rn--122" vertex="1">
          <mxGeometry x="172" y="35" width="6" height="10" as="geometry" />
        </mxCell>
        <mxCell id="45" value="Show R code" style="rounded=1;whiteSpace=wrap;html=1;fontSize=12;strokeColor=#666666;" parent="56yJqlSQkmCnyHyB5Rn--122" vertex="1">
          <mxGeometry x="9" y="60" width="108.25" height="20" as="geometry" />
        </mxCell>
        <mxCell id="56yJqlSQkmCnyHyB5Rn--125" value="" style="rounded=0;whiteSpace=wrap;html=1;fillColor=none;" parent="1" vertex="1">
          <mxGeometry x="685.25" y="430" width="220.01" height="450" as="geometry" />
        </mxCell>
        <mxCell id="56yJqlSQkmCnyHyB5Rn--124" value="" style="rounded=0;whiteSpace=wrap;html=1;fillColor=none;movable=0;resizable=0;rotatable=0;deletable=0;editable=0;locked=1;connectable=0;" parent="1" vertex="1">
          <mxGeometry x="440" y="430" width="1030" height="450" as="geometry" />
        </mxCell>
        <UserObject label="&lt;div style=&quot;box-sizing: border-box; color: rgb(29, 31, 33); font-family: &amp;quot;Open Sans&amp;quot;, -apple-system, BlinkMacSystemFont, &amp;quot;Segoe UI&amp;quot;, Roboto, &amp;quot;Helvetica Neue&amp;quot;, Arial, sans-serif; font-size: 14px; font-style: normal; font-variant-ligatures: normal; font-variant-caps: normal; font-weight: 400; letter-spacing: normal; orphans: 2; text-align: start; text-indent: 0px; text-transform: none; widows: 2; word-spacing: 0px; -webkit-text-stroke-width: 0px; white-space: normal; background-color: rgb(255, 255, 255); text-decoration-thickness: initial; text-decoration-style: initial; text-decoration-color: initial;&quot; id=&quot;teal-footer-content&quot;&gt;&lt;div style=&quot;box-sizing: border-box;&quot;&gt;&lt;u&gt;Powered by teal&lt;/u&gt;&lt;/div&gt;&lt;/div&gt;&lt;div style=&quot;box-sizing: border-box; color: rgb(29, 31, 33); font-family: &amp;quot;Open Sans&amp;quot;, -apple-system, BlinkMacSystemFont, &amp;quot;Segoe UI&amp;quot;, Roboto, &amp;quot;Helvetica Neue&amp;quot;, Arial, sans-serif; font-size: 14px; font-style: normal; font-variant-ligatures: normal; font-variant-caps: normal; font-weight: 400; letter-spacing: normal; orphans: 2; text-align: start; text-indent: 0px; text-transform: none; widows: 2; word-spacing: 0px; -webkit-text-stroke-width: 0px; white-space: normal; background-color: rgb(255, 255, 255); text-decoration-thickness: initial; text-decoration-style: initial; text-decoration-color: initial;&quot;&gt;&lt;u&gt;Session Info&lt;/u&gt;&lt;br style=&quot;box-sizing: border-box;&quot;&gt;&lt;u&gt;Download lockfile&lt;/u&gt;&lt;div style=&quot;box-sizing: border-box;&quot; aria-live=&quot;polite&quot; class=&quot;shiny-text-output shiny-bound-output&quot; id=&quot;teal-footer-session_info-identifier&quot;&gt;Pid:XYZ Token:ab123&lt;/div&gt;&lt;/div&gt;" id="56yJqlSQkmCnyHyB5Rn--138">
          <mxCell style="text;whiteSpace=wrap;html=1;" parent="1" vertex="1">
            <mxGeometry x="455.25" y="880" width="230" height="100" as="geometry" />
          </mxCell>
        </UserObject>
        <mxCell id="56yJqlSQkmCnyHyB5Rn--140" value="m" style="group;movable=1;resizable=1;rotatable=1;deletable=1;editable=1;locked=0;connectable=1;" parent="1" vertex="1" connectable="0">
          <mxGeometry x="460" y="714" width="220.5" height="130" as="geometry" />
        </mxCell>
        <mxCell id="60" value="&lt;font style=&quot;font-size: 10px;&quot;&gt;&lt;b style=&quot;font-size: 10px;&quot;&gt;Filter data&amp;nbsp; &amp;nbsp; &amp;nbsp; &amp;nbsp; &amp;nbsp; &amp;nbsp; &amp;nbsp; &amp;nbsp; &amp;nbsp; &amp;nbsp; &amp;nbsp; &amp;nbsp; &amp;nbsp; &amp;nbsp; &amp;nbsp; &amp;nbsp;&amp;nbsp;&lt;/b&gt;&lt;/font&gt;" style="text;html=1;strokeColor=none;fillColor=none;align=left;verticalAlign=middle;whiteSpace=wrap;rounded=0;fontSize=10;labelBackgroundColor=light-dark(#347ab7, #ededed);fontColor=light-dark(#ffffff, #ededed);" parent="56yJqlSQkmCnyHyB5Rn--140" vertex="1">
          <mxGeometry width="220.5" height="22" as="geometry" />
        </mxCell>
        <mxCell id="64" value="&lt;b&gt;IRIS&lt;/b&gt;" style="rounded=1;whiteSpace=wrap;html=1;strokeColor=#919191;fontSize=10;fontColor=#303030;fillColor=#f5f5f5;strokeWidth=0.5;arcSize=4;align=left;" parent="56yJqlSQkmCnyHyB5Rn--140" vertex="1">
          <mxGeometry y="26.75" width="210.5" height="26.25" as="geometry" />
        </mxCell>
        <mxCell id="65" value="&lt;b style=&quot;font-size: 10px;&quot;&gt;Species&lt;/b&gt;&lt;div&gt;&lt;span style=&quot;font-size: 10px;&quot;&gt;&amp;nbsp; setosa&lt;/span&gt;&lt;/div&gt;" style="text;html=1;strokeColor=none;fillColor=none;align=left;verticalAlign=middle;whiteSpace=wrap;rounded=0;fontSize=10;fontColor=#303030;" parent="56yJqlSQkmCnyHyB5Rn--140" vertex="1">
          <mxGeometry y="59" width="60" height="33" as="geometry" />
        </mxCell>
        <mxCell id="56yJqlSQkmCnyHyB5Rn--128" value="&lt;b&gt;MTCARS&lt;/b&gt;" style="rounded=1;whiteSpace=wrap;html=1;strokeColor=#919191;fontSize=10;fontColor=#303030;fillColor=#f5f5f5;strokeWidth=0.5;arcSize=4;align=left;" parent="56yJqlSQkmCnyHyB5Rn--140" vertex="1">
          <mxGeometry y="97" width="210.5" height="26.25" as="geometry" />
        </mxCell>
        <mxCell id="56yJqlSQkmCnyHyB5Rn--132" value="" style="shape=image;html=1;verticalAlign=top;verticalLabelPosition=bottom;labelBackgroundColor=#ffffff;imageAspect=0;aspect=fixed;image=https://icons.diagrams.net/icon-cache1/Arrows_and_Universal_Actions-2216/cancel_circle-1374.svg" parent="56yJqlSQkmCnyHyB5Rn--140" vertex="1">
          <mxGeometry x="165.75" y="32" width="16" height="16" as="geometry" />
        </mxCell>
        <mxCell id="56yJqlSQkmCnyHyB5Rn--133" value="" style="shape=image;html=1;verticalAlign=top;verticalLabelPosition=bottom;labelBackgroundColor=#ffffff;imageAspect=0;aspect=fixed;image=https://icons.diagrams.net/icon-cache1/Arrows_and_Universal_Actions-2216/cancel_circle-1374.svg" parent="56yJqlSQkmCnyHyB5Rn--140" vertex="1">
          <mxGeometry x="166.5" y="103" width="16" height="16" as="geometry" />
        </mxCell>
        <mxCell id="56yJqlSQkmCnyHyB5Rn--135" value="" style="shape=image;html=1;verticalAlign=top;verticalLabelPosition=bottom;labelBackgroundColor=#ffffff;imageAspect=0;aspect=fixed;image=https://icons.diagrams.net/icon-cache1/Arrows_and_Universal_Actions-2216/cancel_circle-1374.svg;rotation=-225;" parent="56yJqlSQkmCnyHyB5Rn--140" vertex="1">
          <mxGeometry x="189.00370849898474" y="103.00370849898479" width="16" height="16" as="geometry" />
        </mxCell>
        <mxCell id="56yJqlSQkmCnyHyB5Rn--136" value="" style="shape=image;html=1;verticalAlign=top;verticalLabelPosition=bottom;labelBackgroundColor=#ffffff;imageAspect=0;aspect=fixed;image=https://icons.diagrams.net/icon-cache1/Arrows_and_Universal_Actions-2216/cancel_circle-1374.svg;rotation=-225;" parent="56yJqlSQkmCnyHyB5Rn--140" vertex="1">
          <mxGeometry x="189.00370849898474" y="31.873708498984684" width="16" height="16" as="geometry" />
        </mxCell>
        <mxCell id="56yJqlSQkmCnyHyB5Rn--137" value="" style="shape=image;html=1;verticalAlign=top;verticalLabelPosition=bottom;labelBackgroundColor=#ffffff;imageAspect=0;aspect=fixed;image=https://icons.diagrams.net/icon-cache1/Arrows_and_Universal_Actions-2216/cancel_circle-1374.svg" parent="56yJqlSQkmCnyHyB5Rn--140" vertex="1">
          <mxGeometry x="189.75" y="57" width="14" height="14" as="geometry" />
        </mxCell>
        <mxCell id="56yJqlSQkmCnyHyB5Rn--144" value="" style="html=1;verticalLabelPosition=bottom;labelBackgroundColor=#ffffff;verticalAlign=top;shadow=0;dashed=0;strokeWidth=2;shape=mxgraph.ios7.misc.expand;fillColor=#c0c0c0;" parent="56yJqlSQkmCnyHyB5Rn--140" vertex="1">
          <mxGeometry x="182.5" y="8" width="24" height="6" as="geometry" />
        </mxCell>
        <mxCell id="56yJqlSQkmCnyHyB5Rn--147" value="" style="rounded=0;whiteSpace=wrap;html=1;fillColor=none;movable=1;resizable=1;rotatable=1;deletable=1;editable=1;locked=0;connectable=1;" parent="56yJqlSQkmCnyHyB5Rn--140" vertex="1">
          <mxGeometry width="220" height="130" as="geometry" />
        </mxCell>
        <mxCell id="56yJqlSQkmCnyHyB5Rn--141" value="" style="group" parent="1" vertex="1" connectable="0">
          <mxGeometry x="460" y="490" width="210" height="120" as="geometry" />
        </mxCell>
        <mxCell id="51" value="&lt;font style=&quot;font-size: 10px;&quot;&gt;&lt;b style=&quot;font-size: 10px;&quot;&gt;Active Filter Summary&amp;nbsp; &amp;nbsp; &amp;nbsp; &amp;nbsp;&amp;nbsp;&lt;/b&gt;&lt;/font&gt;" style="text;html=1;strokeColor=none;fillColor=none;align=left;verticalAlign=middle;whiteSpace=wrap;rounded=0;fontSize=10;fontColor=#FFFFFF;labelBackgroundColor=light-dark(#347ab7, #ededed);" parent="56yJqlSQkmCnyHyB5Rn--141" vertex="1">
          <mxGeometry width="210" height="24" as="geometry" />
        </mxCell>
        <mxCell id="53" value="&lt;b style=&quot;font-size: 10px;&quot;&gt;Data Name&lt;/b&gt;" style="text;html=1;strokeColor=none;fillColor=none;align=left;verticalAlign=middle;whiteSpace=wrap;rounded=0;fontSize=10;fontColor=#303030;" parent="56yJqlSQkmCnyHyB5Rn--141" vertex="1">
          <mxGeometry x="25.5" y="29" width="100" height="12" as="geometry" />
        </mxCell>
        <mxCell id="54" value="&lt;b style=&quot;font-size: 10px;&quot;&gt;MTCARS&lt;/b&gt;" style="text;html=1;strokeColor=none;fillColor=none;align=left;verticalAlign=middle;whiteSpace=wrap;rounded=0;fontSize=10;fontColor=#303030;" parent="56yJqlSQkmCnyHyB5Rn--141" vertex="1">
          <mxGeometry x="25.5" y="78" width="60" height="6" as="geometry" />
        </mxCell>
        <mxCell id="55" value="&lt;b style=&quot;font-size: 10px;&quot;&gt;IRIS&lt;/b&gt;" style="text;html=1;strokeColor=none;fillColor=none;align=left;verticalAlign=middle;whiteSpace=wrap;rounded=0;fontSize=10;fontColor=#303030;" parent="56yJqlSQkmCnyHyB5Rn--141" vertex="1">
          <mxGeometry x="25.5" y="56" width="60" height="5" as="geometry" />
        </mxCell>
        <mxCell id="56" value="&lt;b style=&quot;font-size: 10px;&quot;&gt;Obs&lt;/b&gt;" style="text;html=1;strokeColor=none;fillColor=none;align=left;verticalAlign=middle;whiteSpace=wrap;rounded=0;fontSize=10;fontColor=#303030;" parent="56yJqlSQkmCnyHyB5Rn--141" vertex="1">
          <mxGeometry x="130.5" y="29" width="60" height="12" as="geometry" />
        </mxCell>
        <mxCell id="57" value="32/32" style="text;html=1;strokeColor=none;fillColor=none;align=left;verticalAlign=middle;whiteSpace=wrap;rounded=0;fontSize=10;fontColor=#303030;" parent="56yJqlSQkmCnyHyB5Rn--141" vertex="1">
          <mxGeometry x="130.5" y="73" width="60" height="16" as="geometry" />
        </mxCell>
        <mxCell id="58" value="50/150" style="text;html=1;strokeColor=none;fillColor=none;align=left;verticalAlign=middle;whiteSpace=wrap;rounded=0;fontSize=10;fontColor=#303030;" parent="56yJqlSQkmCnyHyB5Rn--141" vertex="1">
          <mxGeometry x="130.5" y="56" width="60" height="6" as="geometry" />
        </mxCell>
        <mxCell id="56yJqlSQkmCnyHyB5Rn--143" value="" style="html=1;verticalLabelPosition=bottom;labelBackgroundColor=#ffffff;verticalAlign=top;shadow=0;dashed=0;strokeWidth=2;shape=mxgraph.ios7.misc.expand;fillColor=#c0c0c0;" parent="56yJqlSQkmCnyHyB5Rn--141" vertex="1">
          <mxGeometry x="180" y="9" width="24" height="6" as="geometry" />
        </mxCell>
        <mxCell id="56yJqlSQkmCnyHyB5Rn--148" value="" style="rounded=0;whiteSpace=wrap;html=1;fillColor=none;" parent="56yJqlSQkmCnyHyB5Rn--141" vertex="1">
          <mxGeometry y="1" width="210" height="119" as="geometry" />
        </mxCell>
        <mxCell id="56yJqlSQkmCnyHyB5Rn--150" value="" style="endArrow=none;html=1;rounded=0;" parent="56yJqlSQkmCnyHyB5Rn--141" edge="1">
          <mxGeometry width="50" height="50" relative="1" as="geometry">
            <mxPoint x="205" y="44.97000000000003" as="sourcePoint" />
            <mxPoint x="5" y="45.870000000000005" as="targetPoint" />
          </mxGeometry>
        </mxCell>
        <mxCell id="56yJqlSQkmCnyHyB5Rn--145" value="" style="html=1;verticalLabelPosition=bottom;labelBackgroundColor=#ffffff;verticalAlign=top;shadow=0;dashed=0;strokeWidth=2;shape=mxgraph.ios7.misc.expand;fillColor=#c0c0c0;rotation=-90;" parent="1" vertex="1">
          <mxGeometry x="641.5" y="460" width="24" height="6" as="geometry" />
        </mxCell>
        <mxCell id="56yJqlSQkmCnyHyB5Rn--146" value="" style="html=1;verticalLabelPosition=bottom;labelBackgroundColor=#ffffff;verticalAlign=top;shadow=0;dashed=0;strokeWidth=2;shape=mxgraph.ios7.misc.expand;fillColor=#c0c0c0;rotation=-90;" parent="1" vertex="1">
          <mxGeometry x="870" y="460" width="24" height="6" as="geometry" />
        </mxCell>
        <mxCell id="BKAvLCpm9WKAGKXnuSMY-120" value="" style="shape=image;imageAspect=0;aspect=fixed;verticalLabelPosition=bottom;verticalAlign=top;image=https://icons.getbootstrap.com/assets/icons/diagram-3.svg;imageBackground=none;" vertex="1" parent="1">
          <mxGeometry x="441" y="379" width="29" height="29" as="geometry" />
        </mxCell>
      </root>
    </mxGraphModel>
  </diagram>
</mxfile>
